<svg width="72" height="72" viewBox="0 0 72 72" fill="none" xmlns="http://www.w3.org/2000/svg">
<g id="Chield_check_fill">
<path id="Subtract" fill-rule="evenodd" clip-rule="evenodd" d="M55.1818 17.2201L39.5453 10.5187C37.2813 9.54845 34.7187 9.54845 32.4547 10.5187L16.8182 17.2201C15.7152 17.6928 15 18.7774 15 19.9775V35.7362C15 41.5493 17.8074 47.0046 22.5377 50.3834L32.5126 57.5083C34.5988 58.9984 37.4012 58.9984 39.4874 57.5083L49.4623 50.3834C54.1926 47.0046 57 41.5493 57 35.7362V19.9775C57 18.7774 56.2848 17.6928 55.1818 17.2201ZM47.3426 28.8741C48.3776 27.5803 48.1679 25.6924 46.8741 24.6574C45.5803 23.6224 43.6924 23.8321 42.6574 25.1259L32.7512 37.5086L29.1213 33.8787C27.9498 32.7071 26.0503 32.7071 24.8787 33.8787C23.7071 35.0503 23.7071 36.9497 24.8787 38.1213L29.6936 42.9363C31.5901 44.8328 34.7141 44.6598 36.3895 42.5654L47.3426 28.8741Z" fill="white"/>
</g>
</svg>
