<svg width="72" height="72" viewBox="0 0 72 72" fill="none" xmlns="http://www.w3.org/2000/svg">
<g id="Layers_fill">
<path id="Vector 99" d="M33.3167 10.3416L17.3666 18.3167C15.0249 19.4875 13.8541 20.0729 13.8541 21C13.8541 21.9271 15.0249 22.5125 17.3666 23.6833L33.3167 31.6584C34.6334 32.3167 35.2918 32.6459 36 32.6459C36.7082 32.6459 37.3666 32.3167 38.6833 31.6584L54.6334 23.6833C56.9751 22.5125 58.1459 21.9271 58.1459 21C58.1459 20.0729 56.9751 19.4875 54.6334 18.3167L38.6833 10.3416C37.3666 9.68328 36.7082 9.3541 36 9.3541C35.2918 9.3541 34.6334 9.68328 33.3167 10.3416Z" fill="white"/>
<path id="Subtract" fill-rule="evenodd" clip-rule="evenodd" d="M21.0666 31.468C22.8781 32.4405 25.0113 33.5072 27.4663 34.7346L30.6334 36.3182L30.6335 36.3182C33.2669 37.6349 34.5836 38.2933 36 38.2933C37.4164 38.2933 38.7331 37.6349 41.3666 36.3182L44.5337 34.7346C46.989 33.507 49.1225 32.4403 50.9341 31.4677L54.6342 33.3177C56.9758 34.4885 58.1466 35.0739 58.1466 36.001C58.1466 36.928 56.9758 37.5134 54.6342 38.6842L38.684 46.6593C37.3673 47.3177 36.7089 47.6469 36.0007 47.6469C35.2925 47.6469 34.6342 47.3177 33.3175 46.6593L17.3673 38.6842C15.0257 37.5134 13.8548 36.928 13.8548 36.001C13.8548 35.0739 15.0257 34.4885 17.3673 33.3177L21.0666 31.468Z" fill="white"/>
<path id="Subtract_2" fill-rule="evenodd" clip-rule="evenodd" d="M21.0654 46.4679C22.8773 47.4407 25.0112 48.5076 27.467 49.7355L30.6342 51.3191L30.6342 51.3191C33.2676 52.6359 34.5843 53.2942 36.0007 53.2942C37.4171 53.2942 38.7339 52.6358 41.3673 51.3191L44.5345 49.7355C46.9903 48.5076 49.1242 47.4407 50.9361 46.4679L54.6342 48.3169C56.9758 49.4878 58.1466 50.0732 58.1466 51.0002C58.1466 51.9273 56.9758 52.5127 54.6342 53.6835L38.684 61.6586C37.3673 62.3169 36.7089 62.6461 36.0007 62.6461C35.2925 62.6461 34.6342 62.3169 33.3175 61.6586L17.3673 53.6835C15.0257 52.5127 13.8548 51.9273 13.8548 51.0002C13.8548 50.0732 15.0257 49.4878 17.3673 48.3169L21.0654 46.4679Z" fill="white"/>
</g>
</svg>
