<svg width="72" height="72" viewBox="0 0 72 72" fill="none" xmlns="http://www.w3.org/2000/svg">
<g id="lightning_fill">
<path id="Vector 29" d="M34.5 41.4H30.3896C26.1643 41.4 24.0516 41.4 23.1668 40.0154C22.2821 38.6308 23.1696 36.7136 24.9448 32.8793L33.1388 15.1802C34.2614 12.7555 34.8226 11.5431 35.4113 11.6727C36 11.8024 36 13.1384 36 15.8104V29.1C36 29.8071 36 30.1607 36.2197 30.3803C36.4393 30.6 36.7929 30.6 37.5 30.6H41.6104C45.8357 30.6 47.9484 30.6 48.8332 31.9846C49.7179 33.3692 48.8304 35.2864 47.0552 39.1207L38.8612 56.8198C37.7386 59.2445 37.1774 60.4569 36.5887 60.3273C36 60.1976 36 58.8616 36 56.1896V42.9C36 42.1929 36 41.8393 35.7803 41.6197C35.5607 41.4 35.2071 41.4 34.5 41.4Z" fill="white"/>
</g>
</svg>
