<svg width="126" height="18" viewBox="0 0 126 18" fill="none" xmlns="http://www.w3.org/2000/svg">
<path d="M115.365 7.504H123.717V10.072H115.365V7.504ZM115.605 14.704H125.085V17.32H112.485V0.519997H124.749V3.136H115.605V14.704Z" fill="white"/>
<path d="M93 17.72V0.919998H100.344C102.168 0.919998 103.768 1.272 105.144 1.976C106.52 2.68 107.592 3.656 108.36 4.904C109.128 6.152 109.512 7.624 109.512 9.32C109.512 11 109.128 12.472 108.36 13.736C107.592 14.984 106.52 15.96 105.144 16.664C103.768 17.368 102.168 17.72 100.344 17.72H93ZM96.12 15.08H100.2C101.464 15.08 102.552 14.84 103.464 14.36C104.392 13.88 105.104 13.208 105.6 12.344C106.112 11.48 106.368 10.472 106.368 9.32C106.368 8.152 106.112 7.144 105.6 6.296C105.104 5.432 104.392 4.76 103.464 4.28C102.552 3.8 101.464 3.56 100.2 3.56H96.12V15.08Z" fill="white"/>
<path d="M80.3261 17.56C79.0141 17.56 77.8061 17.344 76.7021 16.912C75.5981 16.48 74.6381 15.88 73.8221 15.112C73.0061 14.328 72.3741 13.416 71.9261 12.376C71.4781 11.32 71.2541 10.168 71.2541 8.92C71.2541 7.672 71.4781 6.528 71.9261 5.488C72.3741 4.432 73.0061 3.52 73.8221 2.752C74.6381 1.968 75.5981 1.36 76.7021 0.927999C77.8061 0.495999 79.0061 0.279999 80.3021 0.279999C81.6141 0.279999 82.8141 0.495999 83.9021 0.927999C85.0061 1.36 85.9661 1.968 86.7821 2.752C87.5981 3.52 88.2301 4.432 88.6781 5.488C89.1261 6.528 89.3501 7.672 89.3501 8.92C89.3501 10.168 89.1261 11.32 88.6781 12.376C88.2301 13.432 87.5981 14.344 86.7821 15.112C85.9661 15.88 85.0061 16.48 83.9021 16.912C82.8141 17.344 81.6221 17.56 80.3261 17.56Z" fill="white"/>
<path d="M62.7926 17.56C61.5126 17.56 60.3206 17.352 59.2166 16.936C58.1286 16.504 57.1766 15.904 56.3606 15.136C55.5606 14.352 54.9366 13.432 54.4886 12.376C54.0406 11.32 53.8166 10.168 53.8166 8.92C53.8166 7.672 54.0406 6.52 54.4886 5.464C54.9366 4.408 55.5686 3.496 56.3846 2.728C57.2006 1.944 58.1526 1.344 59.2406 0.927999C60.3286 0.495999 61.5206 0.279999 62.8166 0.279999C64.1926 0.279999 65.4486 0.519999 66.5846 1C67.7206 1.464 68.6806 2.16 69.4646 3.088L67.4486 4.984C66.8406 4.328 66.1606 3.84 65.4086 3.52C64.6566 3.184 63.8406 3.016 62.9606 3.016C62.0806 3.016 61.2726 3.16 60.5366 3.448C59.8166 3.736 59.1846 4.144 58.6406 4.672C58.1126 5.2 57.6966 5.824 57.3926 6.544C57.1046 7.264 56.9606 8.056 56.9606 8.92C56.9606 9.784 57.1046 10.576 57.3926 11.296C57.6966 12.016 58.1126 12.64 58.6406 13.168C59.1846 13.696 59.8166 14.104 60.5366 14.392C61.2726 14.68 62.0806 14.824 62.9606 14.824C63.8406 14.824 64.6566 14.664 65.4086 14.344C66.1606 14.008 66.8406 13.504 67.4486 12.832L69.4646 14.752C68.6806 15.664 67.7206 16.36 66.5846 16.84C65.4486 17.32 64.1846 17.56 62.7926 17.56Z" fill="white"/>
<path d="M47.3526 17.32V0.519997H50.4726V17.32H47.3526Z" fill="white"/>
<path d="M27.5244 17.32V0.519997H34.8684C36.6924 0.519997 38.2924 0.871997 39.6684 1.576C41.0444 2.28 42.1164 3.256 42.8844 4.504C43.6524 5.752 44.0364 7.224 44.0364 8.92C44.0364 10.6 43.6524 12.072 42.8844 13.336C42.1164 14.584 41.0444 15.56 39.6684 16.264C38.2924 16.968 36.6924 17.32 34.8684 17.32H27.5244ZM30.6444 14.68H34.7244C35.9884 14.68 37.0764 14.44 37.9884 13.96C38.9164 13.48 39.6284 12.808 40.1244 11.944C40.6364 11.08 40.8924 10.072 40.8924 8.92C40.8924 7.752 40.6364 6.744 40.1244 5.896C39.6284 5.032 38.9164 4.36 37.9884 3.88C37.0764 3.4 35.9884 3.16 34.7244 3.16H30.6444V14.68Z" fill="white"/>
<path d="M19.8604 17.32V0.519997H22.9804V17.32H19.8604Z" fill="white"/>
<path d="M7.344 17.32L0 0.519997H3.384H6.12H9.936H12.276H14.616H17.736L10.416 17.32H7.344Z" fill="white"/>
</svg>
