<svg width="19" height="18" viewBox="0 0 19 18" fill="none" xmlns="http://www.w3.org/2000/svg">
<path d="M9.072 17.28C7.76 17.28 6.552 17.064 5.448 16.632C4.344 16.2 3.384 15.6 2.568 14.832C1.752 14.048 1.12 13.136 0.671997 12.096C0.223997 11.04 0 9.888 0 8.64C0 7.392 0.223997 6.248 0.671997 5.208C1.12 4.152 1.752 3.24 2.568 2.472C3.384 1.688 4.344 1.08 5.448 0.648C6.552 0.216 7.752 0 9.048 0C10.36 0 11.56 0.216 12.648 0.648C13.752 1.08 14.712 1.688 15.528 2.472C16.344 3.24 16.976 4.152 17.424 5.208C17.872 6.248 18.096 7.392 18.096 8.64C18.096 9.888 17.872 11.04 17.424 12.096C16.976 13.152 16.344 14.064 15.528 14.832C14.712 15.6 13.752 16.2 12.648 16.632C11.56 17.064 10.368 17.28 9.072 17.28Z" fill="#333333"/>
</svg>
