<svg width="16" height="25" viewBox="0 0 16 25" fill="none" xmlns="http://www.w3.org/2000/svg">
<path d="M-7.69933e-07 13.1779C-7.12724e-07 11.8691 0.192592 10.6503 0.577778 9.52147C0.977778 8.409 1.53333 7.43558 2.24444 6.60122C2.97037 5.78323 3.82222 5.14519 4.8 4.68712C5.77778 4.22904 6.84444 4 8 4C9.15556 4 10.2222 4.22904 11.2 4.68712C12.1778 5.14519 13.0222 5.79141 13.7333 6.62577C14.4593 7.46012 15.0148 8.43354 15.4 9.54601C15.8 10.6585 16 11.8773 16 13.2025C16 14.6094 15.7778 15.8937 15.3333 17.0552C14.9037 18.2168 14.2593 19.1984 13.4 20L11.6444 17.9387C12.2519 17.317 12.7037 16.6217 13 15.8528C13.3111 15.0838 13.4667 14.2495 13.4667 13.3497C13.4667 12.4499 13.3333 11.6237 13.0667 10.8712C12.8 10.135 12.4222 9.48875 11.9333 8.93252C11.4444 8.39264 10.8667 7.96728 10.2 7.65644C9.53333 7.36196 8.8 7.21472 8 7.21472C7.2 7.21472 6.46667 7.36196 5.8 7.65644C5.13333 7.96728 4.55556 8.39264 4.06667 8.93252C3.57778 9.48875 3.2 10.135 2.93333 10.8712C2.66667 11.6237 2.53333 12.4499 2.53333 13.3497C2.53333 14.2495 2.68148 15.0838 2.97778 15.8528C3.28889 16.6217 3.75556 17.317 4.37778 17.9387L2.6 20C1.75555 19.1984 1.11111 18.2168 0.666665 17.0552C0.222221 15.8937 -8.32148e-07 14.6012 -7.69933e-07 13.1779Z" fill="#333333"/>
<path d="M8.65119e-07 13L16 13L16 18.3372C16 19.6628 15.6648 20.8256 14.9943 21.8256C14.3238 22.8256 13.3943 23.6046 12.2057 24.1628C11.0171 24.7209 9.61524 25 8 25C6.4 25 4.9981 24.7209 3.79429 24.1628C2.60572 23.6046 1.67619 22.8256 1.00571 21.8256C0.335238 20.8256 5.73879e-07 19.6628 6.31822e-07 18.3372L8.65119e-07 13Z" fill="#333333"/>
</svg>
